# xmcd
# 
# Track frame offsets:
#     150
#     12230
#     28298
#     37993
#     53277
#     62262
#     75006
#     88793
#     96555
#     107504
#     124748
#     137465
#     151964
#     166436
# 
# Disc length: 2421
# 
# Revision: 1
# Processed by: cddbd v1.5.2PL0 Copyright (c) Steve Scherf et al.
# Submitted via: fre:ac v1.0.31
# 
DISCID=9c09730e
DTITLE=The Shootouts - Quick Draw
DYEAR=2019
DGENRE=Country
TTITLE0=Cleaning House
TTITLE1=I'd Rather Be Lonely
TTITLE2=If I Could
TTITLE3=California to Ohio
TTITLE4=Quick Draw
TTITLE5=Must Be Love
TTITLE6=If We Quit Now
TTITLE7=Who Needs Rock and Roll
TTITLE8=Alimony
TTITLE9=Lonely Never Lets Me Down
TTITLE10=Reckless Abandon
TTITLE11=Radio Jesus
TTITLE12=Losing Faith in Being Faithful
TTITLE13=California to Ohio (Strings)
EXTD=
EXTT0=
EXTT1=
EXTT2=
EXTT3=
EXTT4=
EXTT5=
EXTT6=
EXTT7=
EXTT8=
EXTT9=
EXTT10=
EXTT11=
EXTT12=
EXTT13=
PLAYORDER=
